<?xml version="1.0" encoding="UTF-8"?>
<svg viewBox="0 0 672.75922 622.21173" xmlns="http://www.w3.org/2000/svg">
 <g transform="translate(-38 -109.83)">
  <path d="m235.59 175.28c82.412-38.506 237.56-72.979 368.51-39.187 34.233 10.515 84.054 32.049 97.286 78.472 20.072 70.425-7.2426 129.54-90.22 189.22-68.476 49.256-235.61 105.36-309.74 100.12-30.338 83.164 1.9711 114.76 3.0642 129-38.142-31.777-42.085-67.354-58.642-125.91-29.417-4.9608-19.603-0.49922-74.513-18.355-54.27-17.648-200.38-189.72 64.251-313.36z" fill-rule="evenodd" stroke="#000" stroke-width="6.1398"/>
 </g>
 <path d="m415.51 110.68c-23.214 5.3571-44.23 10.784-44.23 10.427l-14.625 155.34 28.188-7.5 2.875-57.5 12.397-0.82344 4.3844 53.698c0 1e-5 32.129-5.3527 30.344-6.7812s-17.189-133.29-19.332-146.86zm-22.668 31.802 6.8133 37.645-12.636 7.8219 5.8226-45.466z" fill="#fff" fill-rule="evenodd" stroke="#000" stroke-width="3"/>
 <g transform="translate(-38 -109.83)" fill="#fff" fill-rule="evenodd" stroke="#000" stroke-width="3">
  <path d="m112.14 305.22 24.582-6.3419 43.99 66.342 7.1428-73.571 14.286-2.8572 21.429 52.143 18.485-67.475s3.4476-1.2478 29.546-6.977c-4.2065 35.182-20.678 154.11-20.678 154.11l-12.352 3.1963-24.286-40-10.043 48.153-17.1 4.7041-75-131.43z"/>
  <path d="m291.69 259-5.6066 156.18 32.785-8.0664 1.847-64.755 28.745-6.9336-0.8876 60.505 33.24-6.9336 1.046-150.92-32.143 7.1428-1.1327 60.714-26.724 6.0968v-60.469l-31.169 7.4387z"/>
 </g>
 <path d="m435.93 105.39 0.65301 34.531 21.194-5c0.09862 38.49-1.069 85.438-1.7244 116.48l20.48-4.7041 2.0816-117.85 24.275-6.6632 1.6632-35.184-68.622 18.388z" fill="#fff" fill-rule="evenodd" stroke="#000" stroke-width="3"/>
 <path d="m537.55 127.71c1.6993-5.1835-1.4741-18.611 9.5547-24.399 24.557-12.888 27.437 7.5719 10.58 32.179s-9.6598 65.49-8.1819 65.329l27.511-7.76c0.72517-4.8052-0.77663-41.635 7.9036-51.75 20.096-23.418 18.912-47.465 4.326-60.245-12.092-10.595-43.087-6.6832-54.329-0.59174-29.849 16.174-22.487 49.024-20.27 51.63 7.9402 9.3353 17.871 10.969 22.907-4.3934z" fill="#fff" fill-rule="evenodd" stroke="#000" stroke-width="3"/>
 <path d="m549.41 235.31c4.6614 3.2749 8.1754 3.3537 19.652 1.0519 4.3474-0.87198 22.221-9.8432 10.617-22.458s-44.487 11.417-30.269 21.406z" fill="#fff" fill-rule="evenodd" stroke="#000" stroke-width="2.454"/>
</svg>
